<?xml version="1.0" standalone="no"?>
<!DOCTYPE svg PUBLIC "-//W3C//DTD SVG 20010904//EN"
 "http://www.w3.org/TR/2001/REC-SVG-20010904/DTD/svg10.dtd">
<svg version="1.0" xmlns="http://www.w3.org/2000/svg"
 width="700.000000pt" height="700.000000pt" viewBox="0 0 700.000000 700.000000"
 preserveAspectRatio="xMidYMid meet">
<metadata>
Created by potrace 1.14, written by Peter Selinger 2001-2017
</metadata>
<g transform="translate(0.000000,700.000000) scale(0.100000,-0.100000)"
fill="#000000" stroke="none">
<path d="M3278 6995 c-1 -1 -42 -5 -89 -9 -47 -4 -95 -8 -106 -10 -11 -3 -44
-7 -74 -11 -390 -47 -863 -208 -1239 -423 -86 -49 -301 -187 -339 -218 -9 -7
-52 -41 -96 -75 -353 -275 -673 -651 -897 -1054 -49 -87 -148 -289 -148 -301
0 -2 -9 -23 -20 -47 -57 -123 -157 -435 -186 -582 -2 -11 -10 -54 -19 -95 -29
-147 -36 -200 -52 -370 -15 -164 -8 -592 12 -711 2 -13 6 -46 9 -74 9 -78 22
-152 51 -285 21 -96 91 -339 114 -395 5 -11 25 -65 46 -120 63 -166 249 -531
312 -610 4 -6 34 -49 65 -95 170 -255 433 -535 708 -755 92 -74 370 -265 386
-265 4 0 15 -6 23 -14 26 -22 298 -158 408 -204 146 -60 384 -141 459 -156 10
-2 57 -13 104 -25 109 -26 200 -43 299 -57 25 -3 57 -8 71 -10 163 -25 682
-25 842 1 13 2 46 7 73 10 72 10 86 12 120 19 17 3 44 8 60 11 343 65 740 212
1039 384 49 28 93 51 97 51 5 0 9 5 9 10 0 6 5 10 10 10 15 0 220 141 330 227
152 118 324 280 450 422 36 41 70 79 76 85 6 6 48 61 94 121 150 197 277 405
383 628 26 53 47 99 47 102 0 2 11 28 24 57 57 127 151 421 182 573 17 81 54
301 59 350 4 33 9 71 11 85 9 47 11 525 3 605 -15 165 -21 220 -24 225 -2 3
-6 30 -10 60 -4 30 -22 123 -40 205 -53 232 -102 385 -197 610 -387 911 -1160
1625 -2103 1943 -168 57 -420 119 -555 137 -19 3 -46 7 -60 10 -13 2 -52 7
-86 11 -33 3 -74 8 -90 10 -32 5 -540 14 -546 9z m639 -2694 c9 -1 12 -116 12
-477 0 -262 2 -479 5 -481 3 -3 9 -2 15 2 7 4 11 67 11 178 0 152 2 174 18
188 17 16 375 386 508 527 l69 72 288 0 289 0 44 -47 44 -48 0 -432 c0 -256 4
-434 9 -438 20 -11 24 22 23 184 l-1 166 177 181 c97 100 232 238 299 308
l123 126 369 0 369 0 46 -52 46 -52 -75 -76 c-40 -41 -97 -100 -126 -130 -51
-54 -401 -419 -489 -510 -41 -42 -339 -353 -484 -504 -32 -33 -108 -112 -169
-175 l-110 -114 -336 -1 -336 0 1 317 c0 174 -1 317 -3 317 -3 0 -328 -335
-538 -556 l-80 -84 -336 0 -336 0 -1 578 c0 317 -1 583 -1 590 -1 6 -8 12 -16
12 -12 0 -15 -20 -15 -120 l0 -120 -312 0 -312 0 -243 120 c-134 67 -248 118
-253 115 -6 -4 -10 -11 -10 -16 0 -6 96 -57 213 -113 116 -57 333 -163 481
-235 148 -72 272 -131 275 -131 4 0 6 -502 2 -566 -1 -7 -22 -35 -47 -63 l-46
-51 -1287 0 -1288 0 -40 48 -41 48 47 50 c59 64 198 218 221 244 9 11 55 61
102 112 46 51 100 110 119 131 l34 38 315 0 315 1 60 -30 c216 -108 458 -222
471 -222 9 0 14 6 12 13 -5 13 -64 44 -349 181 -101 48 -191 92 -199 96 -18
11 -137 69 -322 158 l-138 67 0 290 0 290 43 47 c23 25 51 48 61 50 16 2 2762
1 2803 -1z"/>
</g>
</svg>
