<svg xmlns="http://www.w3.org/2000/svg" width="1013.192" height="195.626" xmlns:v="https://vecta.io/nano"><path d="M975.673 11.922v29.276h5.142v-11.44h4.113c2.758 0 4.697.313 5.792.933 1.861 1.084 2.8 3.3 2.8 6.66v2.3l.096.933.078.325c.03.096.042.193.072.289h4.781l-.169-.367c-.12-.235-.193-.741-.247-1.511l-.066-2.174v-2.132c0-1.469-.536-2.981-1.602-4.522-1.054-1.541-2.74-2.493-5.034-2.854 1.812-.295 3.233-.765 4.245-1.427 1.921-1.234 2.872-3.161 2.872-5.792 0-3.697-1.517-6.178-4.558-7.436-1.698-.711-4.377-1.06-8.026-1.06h-10.29zm17.847 8.99c0 2.222-1.024 3.727-3.053 4.516-1.102.428-2.752.644-4.956.644h-4.697V15.607h4.438c2.89 0 4.992.361 6.292 1.072 1.313.717 1.975 2.132 1.975 4.233zm19.672 5.702c0-7.364-2.619-13.644-7.828-18.835-5.22-5.19-11.537-7.78-18.937-7.78-7.346 0-13.632 2.589-18.823 7.78-5.22 5.214-7.828 11.495-7.828 18.835 0 7.418 2.589 13.735 7.755 18.943 5.19 5.233 11.489 7.852 18.895 7.852 7.4 0 13.717-2.619 18.937-7.852 5.208-5.233 7.828-11.549 7.828-18.943zM986.421 3.685c6.365 0 11.796 2.246 16.282 6.744 4.474 4.48 6.708 9.881 6.708 16.221 0 6.383-2.234 11.826-6.708 16.33-4.474 4.498-9.899 6.744-16.282 6.744-6.395 0-11.82-2.246-16.294-6.744-4.444-4.504-6.666-9.947-6.666-16.33 0-6.34 2.24-11.742 6.702-16.221 4.492-4.498 9.911-6.744 16.258-6.744" fill="#2350a9"/><path d="M0 195.626h130.536V11.916H0v183.71z" fill="#fff"/><path d="M150.123 11.916l754.077.006c26.723 0 48.387 21.659 48.387 48.381v86.719c0 26.71-21.665 48.375-48.387 48.375H150.123V11.916M0 11.916h130.536v32.732L0 83.148V11.916m130.542 53.361L.006 104.108v10.019l130.536-38.645V65.277" fill="#ed1c24"/><path d="M0 90.952l130.536-38.289v-8.014L0 83.148v7.804m130.542-15.469L.006 114.128v81.498h130.536V75.483" fill="#2350a9"/><path d="M604.268 38.283h39.361l.012 22.465-39.373 10.67V38.283m39.373 30.757l-39.367 10.82-.006 78.012h39.361l.012-88.832m49.429 5.064s12.91-7.864 35.923-7.864 43.227 15.27 43.227 34.628v56.998h-42.589v-42.161c0-2.794.434-18.058-18.058-18.058-18.503 0-18.503 16.342-18.503 16.342v43.877h-41.511V68.173h41.511v5.931m130.066 35.514c0-8.791 9.779-15.914 21.833-15.914s21.827 7.123 21.827 15.914-9.773 15.92-21.827 15.92-21.833-7.129-21.833-15.92zm45.166-35.49c-6.75-4.04-14.018-7.93-35.49-7.93-19.575 0-54.192 10.176-54.192 43.293 0 27.746 23.001 42.504 51.609 42.504s38.073-9.465 38.073-9.465.253 17.552-35.514 16.944c-32.461-.542-43.522-12.464-43.522-12.464l-9.791 21.972s18.281 12.055 61.514 12.055c43.221 0 65.807-11.41 65.807-37.651v-75.26h-38.494v6.003m-592.274 26.589c-1.722-6.575-10.314-11.567-20.641-11.567-10.134 0-18.588 5.233-20.539 11.609l41.18-.042zm43.925 29.233c-6.762 25.892-39.963 30.486-65.807 30.486-46.25 0-66.282-22.056-66.282-48.502 0-29.769 24.019-48.038 67.023-48.038 36.501 0 66.03 17.697 66.03 48.905 0 3.769-.241 6.912-.373 10.224h-85.599c1.126 7.009 9.237 11.483 20.093 11.483 9.465 0 16.715.373 19.744-5.853l45.172 1.295m53.656-16.419c0 9.959 9.929 18.034 22.176 18.034s22.17-8.075 22.17-18.034-9.923-18.034-22.17-18.034-22.176 8.075-22.176 18.034zm85.081 44.347l-40.174-.138-.259-5.678c-8.809 4.895-18.973 7.515-28.053 8.105-42.414 2.728-61.411-18.461-61.628-46.454-.223-29.769 24.404-50.934 64.223-47.466 9.598.837 18.967 3.589 25.211 7.587l.036-35.538h40.644V157.88m52.222-44.348c0 9.959 9.935 18.034 22.182 18.034s22.17-8.075 22.17-18.034-9.923-18.034-22.17-18.034-22.182 8.075-22.182 18.034zm85.081 44.347l-40.174-.138-.259-5.678c-8.809 4.895-18.967 7.515-28.047 8.105-42.42 2.728-61.417-18.461-61.628-46.454-.229-29.769 24.404-50.934 64.217-47.466 9.604.837 18.973 3.589 25.211 7.587l.036-35.538h40.644V157.88" fill="#fff"/></svg>