<svg xmlns="http://www.w3.org/2000/svg" viewBox="0 0 1185.4 264.9" xmlns:v="https://vecta.io/nano"><path d="M175.9 100.3l21.6 16.4 13.7 10.3-15.2 7.8-30.7 15.7 10.5 7.3 14.7 10.2-15.9 8.2-97.5 50.3c53.1 29.2 119.9 9.9 149.1-43.3C248 143.6 243.3 94.7 214.3 60l-38.4 40.3zm-91.8 65.5l-21.6-16.4-13.7-10.3 15.2-7.8 30.7-15.7-10.5-7.3-14.7-10.2 15.9-8.2 102.7-53C136.7 4.8 68.9 20.5 36.9 71.9 11 113.4 15.7 167 48.3 203.4l35.8-37.6zm-42.4 44.8C-2.8 161.8.8 86.2 49.5 41.8 90.7 4.3 152.3.2 198.1 32l10.7-5.5C151.5-17 69.9-5.8 26.4 51.5c-38.1 50.2-34.7 120.5 8 166.9l7.3-7.8zM221 52.8c42.8 50.2 36.8 125.6-13.4 168.4-39.6 33.7-96.5 38-140.7 10.4L56 237.2c59.1 40.9 140.1 26.2 181.1-32.9 33.8-48.8 30.3-114.4-8.7-159.3l-7.4 7.8z" fill="#0c3548"/><path d="M68.9 140.9l31.2 23.6-70.5 74.3 140.1-72.3-25.3-17.4 46.7-23.9-31.3-23.6 70.5-74.2-140 72.2 25.3 17.5z" fill="#2ab1f3"/><path d="M325.4 177.6V96.9H399v9.1h-64.5v26.7h51.9v9.2h-51.9v26.7H399v9.1h-73.6zm117.4 0V106H407v-9.1h80.6v9.1h-35.7v71.6h-9.1zm53.2 0V96.9h12.4l59.1 70.3V96.9h9.1v80.6h-12.4L505 107.2v70.3h-9zm93.5-28.6v-9.2h43.7v9.2h-43.7zm57.6 28.6V96.9h12.4l59.1 70.3V96.9h9.1v80.6h-12.4l-59.1-70.3v70.3h-9.1zm106.1 0c-3.7 0-6.9-1.3-9.6-4s-4-5.8-4-9.6v-37.9c0-3.7 1.3-6.9 4-9.6 2.6-2.6 5.8-4 9.6-4h39c3.8 0 7 1.3 9.7 4 2.6 2.7 4 5.8 4 9.6v23.5h-57V164c0 1.2.4 2.2 1.3 3.1s1.9 1.3 3.1 1.3h52.6v9.2h-52.7zm-4.3-37.1h47.7v-14.3c0-1.2-.4-2.2-1.3-3.1s-1.9-1.3-3.1-1.3h-39c-1.2 0-2.2.4-3.1 1.3s-1.3 1.9-1.3 3.1v14.3zm82.1 37.1c-3.8 0-7-1.3-9.6-4s-3.9-5.8-3.9-9.6V91.3h9.2v21.3h28.1v9.2h-28.1V164c0 1.2.4 2.2 1.3 3.1s1.9 1.3 3.1 1.3h23.7v9.2H831zm55.8 0l-25.5-65h9.9l19.7 48.4 20.9-48.4h12.1l22.3 48.3 18.4-48.3h10l-24.5 65h-8L917.9 124l-23 53.6h-8.1zm107.6 0c-3.7 0-6.9-1.3-9.6-4s-4-5.8-4-9.6v-37.9c0-3.7 1.3-6.9 4-9.6 2.6-2.6 5.8-4 9.6-4h39c3.8 0 7 1.3 9.7 4 2.6 2.7 4 5.8 4 9.6V164c0 3.7-1.3 6.9-4 9.6s-5.9 4-9.7 4h-39zm0-9.2h39c1.2 0 2.2-.4 3.1-1.3s1.3-1.9 1.3-3.1v-37.9c0-1.2-.4-2.2-1.3-3.1s-1.9-1.3-3.1-1.3h-39c-1.2 0-2.2.4-3.1 1.3s-1.3 1.9-1.3 3.1V164c0 1.2.4 2.2 1.3 3.1.8.9 1.9 1.3 3.1 1.3zm62.9 9.2v-51.4c0-3.7 1.3-6.9 4-9.6 2.6-2.6 5.8-4 9.6-4h36.5v9.2h-36.5c-1.2 0-2.2.4-3.1 1.3s-1.3 1.9-1.3 3.1v51.4h-9.2zm57.6 0V91.3h9.2v49.2h17.9l25.5-27.9h12.1v.1l-29.5 32.4 29.3 32.4v.1h-12l-25.5-27.9H1124v27.9h-9.1z" enable-background="new" fill="#0c3548"/></svg>