<svg xmlns="http://www.w3.org/2000/svg" width="629" height="93" fill="#e42313" xmlns:v="https://vecta.io/nano"><path d="M30.27 0L13.96 36.9V0H0v92.17h13.96V62.05l6.36-12.72 11.74 42.84h14.79L28.88 32.06 44.77 0zm58.96 22.11l-5.25 36.76h10.78l-5.53-36.76zm-7.19 49.75l-3.18 20.31H65.18L80.25 0h17.97l16.03 92.17h-14.23l-3.18-20.31h-14.8zm73.72-30.95c2.35 0 4.07-.21 5.15-.62s1.99-1.22 2.71-2.42c.72-1.11 1.29-2.63 1.69-4.56.41-1.93.61-4.05.61-6.36 0-2.58-.25-4.9-.75-6.98-.5-2.07-1.15-3.62-1.97-4.63-.72-.92-1.63-1.54-2.71-1.87-1.08-.32-2.66-.48-4.74-.48h-4.34v27.92h4.35zm-4.34 51.27h-13.96V0h19.35c8.11 0 13.98 2.14 17.62 6.42 3.64 4.29 5.46 11.04 5.46 20.25 0 5.99-.7 10.73-2.1 14.23s-3.82 6.49-7.26 8.98l10.74 42.29h-14.79l-8.55-38.55h-6.51v38.56h0zm99.77 0V28.47l-13.15 63.71h-6.17l-13.84-63.71v63.71h-13V0h18.52l11.47 56.11L245.53 0h18.65v92.18zm60.67-70.07l-5.25 36.76h10.78l-5.53-36.76zm-7.19 49.75l-3.18 20.31h-13.68L302.88 0h17.97l16.03 92.17h-14.23l-3.18-20.31h-14.8zm73.71-30.95c2.35 0 4.07-.21 5.15-.62s1.99-1.22 2.71-2.42c.72-1.11 1.29-2.63 1.69-4.56.41-1.93.61-4.05.61-6.36 0-2.58-.25-4.9-.75-6.98-.5-2.07-1.15-3.62-1.97-4.63-.72-.92-1.63-1.54-2.71-1.87-1.08-.32-2.66-.48-4.74-.48h-4.34v27.92h4.35zm-4.33 51.27h-13.96V0h19.35c8.11 0 13.98 2.14 17.62 6.42 3.64 4.29 5.46 11.04 5.46 20.25 0 5.99-.7 10.73-2.1 14.23s-3.82 6.49-7.26 8.98l10.74 42.29h-14.79l-8.55-38.55h-6.51v38.56zm74.53-70.07l-5.25 36.76h10.78l-5.53-36.76zm-7.19 49.75l-3.18 20.31h-13.68L439.6 0h17.96l16.03 92.17h-14.23l-3.18-20.31h-14.79zm101.58 20.32V28.47l-13.16 63.71h-6.17L509.8 28.47v63.71h-12.99V0h18.52l11.47 56.11L537.3 0h18.66v92.18zm60.66-70.07l-5.25 36.76h10.78l-5.53-36.76zm-7.18 49.75l-3.18 20.31h-13.68L594.65 0h17.96l16.03 92.17h-14.23l-3.18-20.31h-14.78z"/></svg>