<svg xmlns="http://www.w3.org/2000/svg" height="800" width="1200" viewBox="-22.5 -26.706 195 160.238" xmlns:v="https://vecta.io/nano"><path d="M10.998 92.359c3.209 0 4.792-3.338 4.792-6.206 0-2.91-1.583-6.288-4.792-6.288-3.294 0-4.836 3.079-4.836 6.075s1.454 6.419 4.836 6.419M0 84.833c0-4.478 2.879-10.618 11.399-10.618 6.633 0 10.555 6.205 10.555 12.196 0 5.82-3.938 11.597-10.142 11.597-1.928 0-4.025-.726-5.65-2.139v7.531c0 2.052-1.284 3.425-3.081 3.425S0 105.452 0 103.4zm27.047-13.854c0-2.054 1.283-3.422 3.079-3.422s3.083 1.368 3.083 3.422v23.347c0 2.058-1.285 3.427-3.083 3.427s-3.079-1.369-3.079-3.427V70.979M39.2 77.895c0-2.054 1.285-3.422 3.082-3.422s3.081 1.368 3.081 3.422v10.997c0 2.57 1.927 3.981 3.98 3.981s3.978-1.411 3.978-3.981V77.895c0-2.054 1.287-3.422 3.083-3.422s3.079 1.368 3.079 3.422v11.126c0 5.479-3.636 8.987-10.14 8.987S39.2 94.499 39.2 89.021V77.895m67.249 16.69c0 2.053-1.281 3.423-3.079 3.423s-3.082-1.37-3.082-3.423V83.588c0-2.57-1.928-3.983-3.979-3.983s-3.982 1.413-3.982 3.983v10.997c0 2.053-1.282 3.423-3.081 3.423s-3.077-1.37-3.077-3.423V83.458c0-5.478 3.635-8.986 10.141-8.986s10.141 3.509 10.141 8.986v11.127M78.529 81.404c-1.155 0-3.51-1.798-5.522-1.798-1.111 0-2.095.513-2.095 1.712 0 2.867 10.699 2.439 10.699 9.46 0 4.107-3.467 7.229-8.776 7.229-3.464 0-8.6-1.969-8.6-4.75 0-.939.94-2.738 2.652-2.738 2.399 0 3.468 2.098 6.377 2.098 1.884 0 2.439-.602 2.439-1.756 0-2.821-10.698-2.396-10.698-9.457 0-4.279 3.466-7.189 8.346-7.189 3.036 0 7.703 1.413 7.703 4.452.001 1.411-1.071 2.737-2.525 2.737m48.189 2.655c-.342-2.694-2.054-4.708-4.922-4.708-2.737 0-4.578 2.098-4.878 4.708h9.8m-9.67 4.108c.426 3.037 2.951 4.45 5.816 4.45 3.17 0 5.353-2.482 6.979-2.482 1.326 0 2.525 1.327 2.525 2.654 0 2.651-5.479 5.219-10.058 5.219-6.933 0-11.554-5.047-11.554-11.854 0-6.248 4.534-11.938 11.039-11.938 6.676 0 11.084 6.076 11.084 11.212 0 1.84-.813 2.74-2.692 2.74h-13.139zm22.082-8.048h-1.37c-1.669 0-2.694-1.026-2.694-2.694 0-1.54 1.154-2.696 2.694-2.696h1.37v-3.68c0-2.057 1.284-3.424 3.08-3.424s3.082 1.367 3.082 3.424v3.68h1.753c1.585 0 2.955.728 2.955 2.696 0 1.925-1.37 2.694-2.955 2.694h-1.753v14.207c0 2.057-1.284 3.426-3.082 3.426s-3.08-1.369-3.08-3.426V80.119" fill="#892063"/><path d="M100.034 38.723a8.515 8.515 0 0 1-6.049 2.506h-5.106l-.05-.001c-.221.001-.803.01-1.566.178-.753.177-1.752.483-2.676 1.385a4.758 4.758 0 0 0-1.209 2.144 6.312 6.312 0 0 0-.192 2.1v4.993a8.508 8.508 0 0 1-2.506 6.049 8.501 8.501 0 0 1-6.048 2.505 8.505 8.505 0 0 1-6.048-2.505 8.514 8.514 0 0 1-2.505-6.049v-4.995a5.63 5.63 0 0 0 .017-.472c0-.404-.031-.964-.208-1.625-.179-.654-.515-1.446-1.21-2.145-.924-.901-1.922-1.207-2.676-1.384a7.411 7.411 0 0 0-1.622-.177h-4.785a8.518 8.518 0 0 1-6.048-2.506 8.526 8.526 0 0 1-2.506-6.047 8.523 8.523 0 0 1 8.554-8.554h4.839a7.305 7.305 0 0 0 1.564-.177c.754-.176 1.752-.482 2.679-1.386.695-.697 1.032-1.49 1.21-2.145.176-.661.208-1.22.208-1.625a5.66 5.66 0 0 0-.017-.473V13.14a8.516 8.516 0 0 1 2.505-6.049 8.511 8.511 0 0 1 6.048-2.505 8.514 8.514 0 0 1 6.048 2.505 8.513 8.513 0 0 1 2.506 6.049v5.172a6.294 6.294 0 0 0 .192 2.101 4.752 4.752 0 0 0 1.212 2.145c.923.903 1.922 1.208 2.677 1.385a7.3 7.3 0 0 0 1.564.177h5.154a8.52 8.52 0 0 1 6.049 2.506 8.51 8.51 0 0 1 2.505 6.048 8.509 8.509 0 0 1-2.504 6.049m7.09-6.048c0-7.259-5.881-13.139-13.139-13.141h-2.434v-.009h-3.205a.567.567 0 0 1-.566-.567v-3.206h-.007V13.14C87.771 5.88 81.889 0 74.632 0a13.14 13.14 0 0 0-13.125 12.563v6.396a.566.566 0 0 1-.565.567h-3.208v.009h-2.139c-7.257.001-13.138 5.882-13.139 13.141a13.14 13.14 0 0 0 12.855 13.132h5.613c.313 0 .566.255.566.567v3.207h.002v2.446c.002 7.258 5.88 13.14 13.14 13.142a13.15 13.15 0 0 0 13.142-13.142v-2.446h.007v-3.207c0-.312.253-.567.566-.567h5.924a13.14 13.14 0 0 0 12.853-13.133" fill="#c91f6f"/></svg>