<svg xmlns="http://www.w3.org/2000/svg" width="96.942" height="96.941" xmlns:v="https://vecta.io/nano"><path fill="#0cbaba" d="M48.47 0C21.7 0 0 21.7 0 48.47s21.7 48.47 48.47 48.47 48.472-21.7 48.472-48.47S75.24 0 48.47 0zM72.4 59.59h-.003v.003H63.1v-8.87l-8.613 8.96H45.19V43.552c-.002-.013 0-.025 0-.037a.22.22 0 0 0-.22-.217c-.12 0-.216.097-.216.217l.002.02v3.122h-8.683l-6.607-3.267c-.035-.02-.076-.033-.12-.033-.134 0-.244.115-.244.26 0 .066.024.126.064.173.01.018.022.035.043.045l5.787 2.822h-.004l7.587 3.697-.02.037v7.83l-1.297 1.464H5.6l-1.153-1.296 7.274-8.002h8.654l7.203 3.49.002-.003a.23.23 0 0 0 .134.045c.13 0 .236-.11.236-.243 0-.12-.087-.22-.2-.237l-13.753-6.703.04-.08h-.052v-7.948l1.2-1.352h39.21v13.03c0 .02-.002.027-.002.036 0 .124.102.225.227.225s.225-.1.225-.225c0-.012 0-.02-.002-.032v-4.575l8.255-8.55h8.005l1.203 1.353v6.92h-.003v4.888a.22.22 0 0 0 .22.22c.123 0 .22-.098.22-.22v-4.66l8.26-8.51 10.235.006 1.256 1.414L72.4 59.59z"/></svg>