<svg xmlns="http://www.w3.org/2000/svg" width="440" height="109" fill="#d8242a" fill-rule="evenodd" xmlns:v="https://vecta.io/nano"><path d="M30.669 5.336c14.381-7.022 31.829-7.071 46.348-.4-11.226-.933-22.447 2.786-31.793 8.853-9.711 6.253-16.857 16.283-19.768 27.438-2.058 7.95-1.706 16.616 1.582 24.19 4.529 10.807 15.55 18.847 27.407 18.878 6.764.071 13.586-2.173 18.799-6.524 6.226-5.129 10.186-12.933 10.595-20.994.293-6.542-1.311-13.395-5.515-18.545-4.569-5.698-11.524-8.875-18.479-10.564-.694-10.475 7.444-20.43 17.63-22.474 11.652 5.511 21.212 15.301 26.376 27.114 5.044 11.345 5.955 24.446 2.582 36.393a54.13 54.13 0 0 1-18.466 27.762c-9.417 7.541-21.425 11.768-33.495 11.75a53.86 53.86 0 0 1-30.078-8.901C13.572 92.232 5.426 81.158 1.991 68.683-1.191 57.359-.546 44.986 3.836 34.067 8.773 21.584 18.563 11.131 30.669 5.336m268.67 20.785c1.738-2.964 5.035-4.733 8.391-5.128 3.884-.489 7.893-.032 11.542 1.417-.325 2.831-.76 5.648-1.134 8.48-2.764-1.058-6.213-1.885-8.884-.205-2.07 1.4-1.915 4.142-1.84 6.342l8.48-.013-.004 8.261c-2.819-.004-5.631.009-8.445-.013l-.004 31.296c-3.377.004-6.755-.01-10.128.009l-.013-31.309-5.267.017v-8.261l5.276.013c-.098-3.706-.005-7.657 2.03-10.906m-71.901 19.666c-2.92 1.711-4.516 5.013-5.004 8.257-.334 3.191-.102 6.519 1.213 9.484.986 2.239 2.845 4.199 5.239 4.902 3.227.946 6.858-.431 8.894-3.053l-.028-19.666c-3.261-1.239-7.168-1.742-10.314.076m10.323-23.945l10.191.008v54.712c-3.116-.004-6.226-.022-9.337.014a41.78 41.78 0 0 1-.413-3.066c-4.671 5.248-13.328 5.012-18.546.719-5.164-4.137-7.337-11.035-7.301-17.465-.134-6.831 2.684-14.132 8.617-17.914 4.897-3.276 11.292-3.436 16.789-1.703V21.842M185.72 44.956c-2.986.978-5 3.786-5.764 6.737-.969 3.72-.893 7.79.547 11.381.946 2.427 2.897 4.613 5.488 5.276 2.818.848 6.093.017 8.062-2.196 2.64-2.852 3.284-6.968 3.088-10.719-.15-3.315-1.173-6.848-3.804-9.053-2.053-1.808-5.057-2.164-7.617-1.426m-2.613-8.32c5.035-1.119 10.675-.777 15.097 2.093 4.604 2.836 7.555 7.84 8.555 13.084 1.088 5.879.213 12.24-3.018 17.336-2.458 3.956-6.537 6.925-11.124 7.854-4.599.901-9.639.493-13.732-1.934-3.902-2.209-6.733-6.021-8.177-10.225-2.205-6.156-1.84-13.226 1.151-19.061 2.231-4.462 6.395-7.929 11.248-9.147m83.497 23.372c-2.04 1.169-3.021 3.831-2.302 6.054.631 1.781 2.565 2.688 4.351 2.777 2.911.333 5.746-.916 7.932-2.769l-.012-8.075c-3.356.361-6.915.4-9.969 2.013m-9.648-19.181c5.47-3.999 12.648-5.635 19.305-4.337 3.396.64 6.586 2.662 8.32 5.697 2 3.289 2.24 7.262 2.142 11.013l-.005 23.354a1036.97 1036.97 0 0 0-9.333 0c-.101-.983-.23-1.955-.399-2.924-5.147 5.204-14.564 5.048-19.604-.226-2.911-3.072-4.004-7.68-2.883-11.747.906-3.489 3.714-6.169 6.897-7.675 4.706-2.235 9.981-2.693 15.101-3.089.12-2.231-.422-4.977-2.738-5.91-4.595-1.969-9.715.226-13.457 3.017l-3.346-7.173m77.657 4.049c-2.64.791-4.662 3.031-5.595 5.573-1.386 3.813-1.431 8.102-.125 11.942.645 1.803 1.64 3.563 3.218 4.714 2.982 2.29 7.626 2.058 10.288-.639 2.662-2.61 3.458-6.528 3.48-10.129-.12-3.653-1.044-7.684-4.044-10.07-1.969-1.684-4.778-1.982-7.222-1.391M332 36.583c4.933-1.04 10.417-.688 14.755 2.085 4.688 2.826 7.701 7.923 8.652 13.243 1.174 5.555.205 11.532-2.56 16.479-2.324 4.195-6.417 7.395-11.092 8.51-5.004 1.098-10.573.622-14.919-2.257-4.369-2.764-7.164-7.524-8.262-12.497-1.453-6.044-.453-12.684 2.857-17.963 2.356-3.773 6.236-6.573 10.569-7.6m40.019 3.52c4.12-3.32 9.697-4.773 14.901-3.724 3.37.533 6.506 2.559 8.208 5.537 2.223 3.795 2.605 8.324 2.507 12.63v22.008c-3.395.013-6.791-.009-10.185.013l.004-22.025c-.004-2.698-.321-5.653-2.142-7.791-1.227-1.488-3.191-2.244-5.098-2.133-3.089-.116-5.635 1.942-7.803 3.893l.004 28.056-10.155-.005.004-39.548 9.279-.004.476 3.093m45.082 5.951c-1.845 1.44-2.662 3.737-2.969 5.977h15.19c-.293-2.853-1.596-5.933-4.368-7.164-2.551-1.377-5.72-.604-7.853 1.187m-8.08-4.489c6.267-6.897 18.43-7.541 25.127-.946 4.724 4.937 5.68 12.185 5.471 18.741l-25.634-.014c-.009 3.458 1.756 7.084 5.111 8.395 5.346 2.071 11.63.774 16.234-2.48.8 2.791 1.858 5.498 2.618 8.302-4.196 2.729-9.271 3.679-14.199 3.88-5.231.129-10.794-1.378-14.474-5.28-4.436-4.466-5.925-11.075-5.462-17.19.169-4.866 1.857-9.808 5.208-13.408m-282.23-4.547l10.897-.004 9.577 24.318c.235.591.52 1.165.814 1.729l9.945-26.034 10.373-.013L152.3 76.531l-8.862.031-16.647-39.544"/></svg>